<svg width="560" height="420" viewBox="0 0 560 420" fill="none" xmlns="http://www.w3.org/2000/svg">
  <defs>
    <radialGradient id="g" cx="0" cy="0" r="1" gradientUnits="userSpaceOnUse" gradientTransform="translate(310 184) rotate(90) scale(240)">
      <stop stop-color="#6ecbff" stop-opacity=".28"/>
      <stop offset="1" stop-color="#020811" stop-opacity="0"/>
    </radialGradient>
    <filter id="shadow" x="54" y="54" width="452" height="314" color-interpolation-filters="sRGB">
      <feDropShadow dx="0" dy="28" stdDeviation="30" flood-color="#000814" flood-opacity=".35"/>
    </filter>
  </defs>
  <rect width="560" height="420" fill="url(#g)"/>
  <g filter="url(#shadow)">
    <rect x="96" y="90" width="330" height="226" rx="24" fill="#07111f" stroke="#dcefff" stroke-opacity=".14"/>
    <rect x="122" y="122" width="116" height="62" rx="16" fill="#102438"/>
    <rect x="256" y="122" width="144" height="62" rx="16" fill="#0b2634"/>
    <rect x="122" y="206" width="86" height="74" rx="16" fill="#0b2634"/>
    <rect x="224" y="206" width="176" height="74" rx="16" fill="#102438"/>
    <circle cx="152" cy="153" r="13" fill="#6ecbff" fill-opacity=".28"/>
    <rect x="172" y="146" width="42" height="9" rx="4.5" fill="#dcefff" fill-opacity=".22"/>
    <rect x="278" y="146" width="88" height="9" rx="4.5" fill="#dcefff" fill-opacity=".2"/>
    <path d="M244 252H372" stroke="#6ecbff" stroke-opacity=".26" stroke-width="4"/>
    <path d="M244 232H334" stroke="#dcefff" stroke-opacity=".16" stroke-width="4"/>
    <rect x="430" y="152" width="44" height="118" rx="18" fill="#dcefff" fill-opacity=".08" stroke="#dcefff" stroke-opacity=".12"/>
  </g>
</svg>
